<svg width="291" height="97" viewBox="0 0 291 97" fill="none" xmlns="http://www.w3.org/2000/svg">
<path d="M99.2931 86.7709H90.2985V0H80.6426V84.3459C80.6426 91.0037 86.0217 96.3827 92.6794 96.3827H96.9121C103.57 96.3827 108.949 91.0037 108.949 84.3459V0H99.2931V86.7709Z" fill="white"/>
<path d="M130.774 0H121.162V86.7709V96.3827H130.774H141.4V86.7709H130.774V0Z" fill="white"/>
<path d="M56.6133 0H52.3806C45.7228 0 40.3438 5.3791 40.3438 12.0368V84.39C40.3438 91.0477 45.7228 96.4268 52.3806 96.4268H56.6133C63.271 96.4268 68.6501 91.0477 68.6501 84.39V53.0414H58.9942V86.7709H49.9996V9.65591H58.9942V33.7736H68.6501V12.0809C68.606 5.37909 63.2269 0 56.6133 0Z" fill="white"/>
<path d="M166.884 0H149.82V33.7736V56.0396V96.3827H159.476V62.6532H166.884C173.541 62.6532 178.92 57.2741 178.92 50.6164V28.9236V28.2182V12.0368C178.876 5.3791 173.497 0 166.884 0ZM169.264 28.9236V53.0414H159.476V33.7736V9.65591H169.264V28.2182V28.9236Z" fill="white"/>
<path d="M186.682 9.65591H194.883V96.3827H204.538V9.65591H212.695V0H186.682V9.65591Z" fill="white"/>
<path d="M237.473 0H233.24C226.582 0 221.203 5.3791 221.203 12.0368V84.39C221.203 91.0477 226.582 96.4268 233.24 96.4268H237.473C244.13 96.4268 249.509 91.0477 249.509 84.39V12.0368C249.509 5.3791 244.13 0 237.473 0ZM239.854 86.7709H230.859V9.65591H239.854V86.7709Z" fill="white"/>
<path d="M281.256 96.3827H291L282.843 62.6091C287.297 62.2123 290.78 58.5086 290.78 53.9673V28.9236V28.2182V12.0368C290.78 5.3791 285.401 0 278.743 0H261.68V33.7736V56.0396V96.3827H271.336V62.6532H273.276L281.256 96.3827ZM271.336 33.7736V9.65591H281.124V28.2182V28.9236V53.0414H271.336V33.7736Z" fill="white"/>
<path d="M29.1 33.7295V12.0368C29.1 5.3791 23.7209 0 17.0632 0H12.0368C5.37909 0 0 5.3791 0 12.0368V36.4191V40.6959C0 43.8264 1.71953 46.7364 4.45317 48.2796L17.945 56.2159C18.8709 56.745 19.4441 57.715 19.4441 58.7291V86.7268H9.65589V62.6091H0V84.3018C0 90.9595 5.37909 96.3387 12.0368 96.3387H17.0632C23.7209 96.3387 29.1 90.9595 29.1 84.3018V56.0396C29.1 52.9091 27.4245 50.0432 24.735 48.5L11.1109 40.255C10.2291 39.7259 9.65589 38.8 9.65589 37.7418V30.8636V9.56773H19.4441V33.6855H29.1V33.7295Z" fill="white"/>
</svg>
