<svg width="291" height="149" viewBox="0 0 291 149" fill="none" xmlns="http://www.w3.org/2000/svg">
<path d="M99.2931 86.7709H90.2985V0H80.6426V84.3459C80.6426 91.0037 86.0217 96.3827 92.6794 96.3827H96.9121C103.57 96.3827 108.949 91.0037 108.949 84.3459V0H99.2931V86.7709Z" fill="#1A141B"/>
<path d="M130.774 0H121.162V86.7709V96.3827H130.774H141.4V86.7709H130.774V0Z" fill="#1A141B"/>
<path d="M56.6133 0H52.3806C45.7228 0 40.3438 5.3791 40.3438 12.0368V84.39C40.3438 91.0477 45.7228 96.4268 52.3806 96.4268H56.6133C63.271 96.4268 68.6501 91.0477 68.6501 84.39V53.0414H58.9942V86.7709H49.9996V9.65591H58.9942V33.7736H68.6501V12.0809C68.606 5.37909 63.2269 0 56.6133 0Z" fill="#1A141B"/>
<path d="M166.884 0H149.82V33.7736V56.0396V96.3827H159.476V62.6532H166.884C173.541 62.6532 178.92 57.2741 178.92 50.6164V28.9236V28.2182V12.0368C178.876 5.3791 173.497 0 166.884 0ZM169.264 28.9236V53.0414H159.476V33.7736V9.65591H169.264V28.2182V28.9236Z" fill="#1A141B"/>
<path d="M186.682 9.65591H194.883V96.3827H204.538V9.65591H212.695V0H186.682V9.65591Z" fill="#1A141B"/>
<path d="M237.473 0H233.24C226.582 0 221.203 5.3791 221.203 12.0368V84.39C221.203 91.0477 226.582 96.4268 233.24 96.4268H237.473C244.13 96.4268 249.509 91.0477 249.509 84.39V12.0368C249.509 5.3791 244.13 0 237.473 0ZM239.854 86.7709H230.859V9.65591H239.854V86.7709Z" fill="#1A141B"/>
<path d="M281.256 96.3827H291L282.843 62.6091C287.297 62.2123 290.78 58.5086 290.78 53.9673V28.9236V28.2182V12.0368C290.78 5.3791 285.401 0 278.743 0H261.68V33.7736V56.0396V96.3827H271.336V62.6532H273.276L281.256 96.3827ZM271.336 33.7736V9.65591H281.124V28.2182V28.9236V53.0414H271.336V33.7736Z" fill="#1A141B"/>
<path d="M29.1 33.7295V12.0368C29.1 5.3791 23.7209 0 17.0632 0H12.0368C5.37909 0 0 5.3791 0 12.0368V36.4191V40.6959C0 43.8264 1.71953 46.7364 4.45317 48.2796L17.945 56.2159C18.8709 56.745 19.4441 57.715 19.4441 58.7291V86.7268H9.65589V62.6091H0V84.3018C0 90.9595 5.37909 96.3387 12.0368 96.3387H17.0632C23.7209 96.3387 29.1 90.9595 29.1 84.3018V56.0396C29.1 52.9091 27.4245 50.0432 24.735 48.5L11.1109 40.255C10.2291 39.7259 9.65589 38.8 9.65589 37.7418V30.8636V9.56773H19.4441V33.6855H29.1V33.7295Z" fill="#1A141B"/>
<path d="M0.0449219 147.926V122.177H10.0095V124.734H3.66038V133.332H8.59857V135.889H3.66038V147.926H0.0449219V147.926Z" fill="#1A141B"/>
<path d="M22.2225 148.235C20.503 148.235 19.0921 147.882 18.0339 147.221C16.9757 146.56 16.2702 145.59 15.8293 144.311C15.3884 143.032 15.168 141.577 15.168 139.858V130.114C15.168 128.438 15.3884 126.939 15.8734 125.749C16.3143 124.514 17.0639 123.588 18.078 122.971C19.0921 122.31 20.503 122.001 22.2225 122.001C23.9421 122.001 25.353 122.31 26.3671 122.971C27.3812 123.632 28.1307 124.558 28.5716 125.749C29.0125 126.939 29.2771 128.394 29.2771 130.114V139.902C29.2771 141.577 29.0566 143.032 28.5716 144.311C28.1307 145.546 27.3812 146.516 26.3671 147.221C25.353 147.882 23.9421 148.235 22.2225 148.235ZM22.2225 145.413C23.1925 145.413 23.898 145.237 24.383 144.84C24.868 144.443 25.2207 143.914 25.353 143.165C25.5293 142.459 25.6175 141.621 25.6175 140.651V129.364C25.6175 128.394 25.5293 127.601 25.353 126.895C25.1766 126.19 24.868 125.661 24.383 125.308C23.898 124.955 23.1925 124.735 22.2225 124.735C21.2525 124.735 20.5471 124.911 20.0621 125.308C19.5771 125.661 19.2244 126.19 19.048 126.895C18.8716 127.601 18.7834 128.394 18.7834 129.364V140.651C18.7834 141.621 18.8716 142.459 19.048 143.165C19.2244 143.87 19.533 144.443 20.0621 144.84C20.5471 145.193 21.2525 145.413 22.2225 145.413Z" fill="#1A141B"/>
<path d="M35.9785 147.926V122.177H41.1372C42.8567 122.177 44.2676 122.397 45.414 122.882C46.5163 123.323 47.354 124.073 47.9272 125.087C48.4563 126.101 48.7208 127.424 48.7208 129.055C48.7208 130.069 48.6326 130.951 48.4122 131.789C48.1917 132.626 47.839 133.288 47.3981 133.861C46.9131 134.434 46.2958 134.831 45.5462 135.095L49.2058 148.014H45.7226L42.3717 135.933H39.594V148.014H35.9785V147.926ZM39.5499 133.288H40.9167C41.9308 133.288 42.7685 133.155 43.3858 132.891C44.0031 132.626 44.4881 132.185 44.7967 131.568C45.1053 130.951 45.2376 130.113 45.2376 129.011C45.2376 127.512 44.9731 126.409 44.3999 125.748C43.8267 125.087 42.7685 124.734 41.1372 124.734H39.5499V133.288V133.288Z" fill="#1A141B"/>
<path d="M66.1367 147.926V122.177H72.5299C74.0731 122.177 75.3076 122.441 76.2335 123.014C77.1594 123.588 77.8208 124.381 78.2617 125.439C78.7026 126.498 78.879 127.776 78.879 129.275C78.879 130.642 78.6585 131.789 78.1735 132.803C77.6885 133.817 76.9831 134.566 76.0572 135.095C75.1313 135.624 73.9408 135.889 72.574 135.889H69.7522V147.882H66.1367V147.926ZM69.7081 133.376H71.3835C72.4417 133.376 73.2354 133.244 73.8526 133.023C74.4258 132.803 74.8667 132.362 75.1312 131.789C75.3958 131.215 75.5281 130.378 75.5281 129.319C75.5281 128.085 75.4399 127.159 75.2635 126.498C75.0872 125.836 74.6903 125.395 74.1172 125.131C73.544 124.866 72.6622 124.734 71.4276 124.734H69.7522V133.376H69.7081Z" fill="#1A141B"/>
<path d="M84.5664 147.926V122.177H89.7691C91.4887 122.177 92.8996 122.397 94.046 122.882C95.1482 123.323 95.986 124.073 96.5591 125.087C97.0882 126.101 97.3528 127.424 97.3528 129.055C97.3528 130.069 97.2646 130.951 97.0441 131.789C96.8237 132.626 96.471 133.288 96.03 133.861C95.545 134.434 94.9278 134.831 94.1782 135.095L97.8378 148.014H94.3546L91.0037 135.933H88.2259V148.014H84.5664V147.926ZM88.1378 133.288H89.5046C90.5187 133.288 91.3564 133.155 91.9737 132.891C92.5909 132.626 93.076 132.185 93.3846 131.568C93.6932 130.951 93.8255 130.113 93.8255 129.011C93.8255 127.512 93.5609 126.409 92.9878 125.748C92.4146 125.087 91.3564 124.734 89.725 124.734H88.1378V133.288V133.288Z" fill="#1A141B"/>
<path d="M110.846 148.235C109.126 148.235 107.715 147.882 106.657 147.221C105.599 146.56 104.893 145.59 104.452 144.311C104.011 143.032 103.791 141.577 103.791 139.858V130.114C103.791 128.438 104.011 126.939 104.496 125.749C104.937 124.514 105.687 123.588 106.701 122.971C107.715 122.31 109.126 122.001 110.846 122.001C112.565 122.001 113.976 122.31 114.99 122.971C116.004 123.632 116.754 124.558 117.195 125.749C117.636 126.939 117.9 128.394 117.9 130.114V139.902C117.9 141.577 117.68 143.032 117.195 144.311C116.754 145.546 116.004 146.516 114.99 147.221C113.976 147.882 112.565 148.235 110.846 148.235ZM110.846 145.413C111.816 145.413 112.521 145.237 113.006 144.84C113.491 144.443 113.844 143.914 113.976 143.165C114.152 142.459 114.241 141.621 114.241 140.651V129.364C114.241 128.394 114.152 127.601 113.976 126.895C113.8 126.19 113.491 125.661 113.006 125.308C112.521 124.955 111.816 124.735 110.846 124.735C109.876 124.735 109.17 124.911 108.685 125.308C108.2 125.661 107.847 126.19 107.671 126.895C107.495 127.601 107.406 128.394 107.406 129.364V140.651C107.406 141.621 107.495 142.459 107.671 143.165C107.847 143.87 108.156 144.443 108.685 144.84C109.17 145.193 109.876 145.413 110.846 145.413Z" fill="#1A141B"/>
<path d="M124.559 147.926V122.177H134.523V124.734H128.174V133.332H133.112V135.889H128.174V147.926H124.559V147.926Z" fill="#1A141B"/>
<path d="M140.211 147.926V122.177H150.22V124.866H143.826V133.376H149.029V135.933H143.826V145.369H150.264V147.926H140.211V147.926Z" fill="#1A141B"/>
<path d="M162.387 148.235C160.888 148.235 159.653 147.926 158.683 147.265C157.713 146.647 156.964 145.765 156.435 144.619C155.905 143.517 155.641 142.194 155.553 140.695L158.727 139.857C158.771 140.783 158.948 141.665 159.168 142.503C159.389 143.34 159.741 144.046 160.27 144.575C160.8 145.104 161.505 145.369 162.387 145.369C163.313 145.369 164.018 145.104 164.503 144.575C164.988 144.046 165.209 143.296 165.209 142.326C165.209 141.18 164.944 140.21 164.415 139.505C163.886 138.799 163.225 138.094 162.431 137.344L158.11 133.508C157.272 132.759 156.655 131.965 156.214 131.083C155.817 130.201 155.597 129.099 155.597 127.82C155.597 125.925 156.126 124.47 157.228 123.411C158.33 122.353 159.785 121.868 161.637 121.868C162.651 121.868 163.533 122 164.327 122.265C165.12 122.53 165.738 122.926 166.267 123.5C166.796 124.073 167.193 124.734 167.501 125.572C167.81 126.41 168.03 127.38 168.119 128.526L165.076 129.364C165.032 128.526 164.9 127.732 164.68 127.027C164.503 126.321 164.15 125.748 163.665 125.307C163.18 124.866 162.519 124.646 161.593 124.646C160.711 124.646 160.006 124.866 159.521 125.351C159.036 125.836 158.771 126.542 158.771 127.468C158.771 128.261 158.904 128.879 159.168 129.408C159.433 129.937 159.874 130.422 160.447 130.951L164.812 134.787C165.782 135.625 166.664 136.639 167.369 137.829C168.119 139.02 168.471 140.386 168.471 142.018C168.471 143.296 168.207 144.399 167.678 145.325C167.149 146.25 166.443 146.956 165.517 147.441C164.68 147.97 163.621 148.235 162.387 148.235Z" fill="#1A141B"/>
<path d="M180.641 148.235C179.142 148.235 177.907 147.926 176.937 147.265C175.967 146.647 175.218 145.765 174.688 144.619C174.159 143.517 173.895 142.194 173.807 140.695L176.981 139.857C177.025 140.783 177.202 141.665 177.422 142.503C177.643 143.34 177.995 144.046 178.524 144.575C179.053 145.104 179.759 145.369 180.641 145.369C181.567 145.369 182.272 145.104 182.757 144.575C183.242 144.046 183.463 143.296 183.463 142.326C183.463 141.18 183.198 140.21 182.669 139.505C182.14 138.799 181.478 138.094 180.685 137.344L176.364 133.508C175.526 132.759 174.909 131.965 174.468 131.083C174.071 130.201 173.851 129.099 173.851 127.82C173.851 125.925 174.38 124.47 175.482 123.411C176.584 122.353 178.039 121.868 179.891 121.868C180.905 121.868 181.787 122 182.581 122.265C183.374 122.53 183.992 122.926 184.521 123.5C185.05 124.073 185.447 124.734 185.755 125.572C186.064 126.41 186.284 127.38 186.373 128.526L183.33 129.364C183.286 128.526 183.154 127.732 182.933 127.027C182.757 126.321 182.404 125.748 181.919 125.307C181.434 124.866 180.773 124.646 179.847 124.646C178.965 124.646 178.26 124.866 177.775 125.351C177.29 125.836 177.025 126.542 177.025 127.468C177.025 128.261 177.158 128.879 177.422 129.408C177.687 129.937 178.128 130.422 178.701 130.951L183.066 134.787C184.036 135.625 184.918 136.639 185.623 137.829C186.373 139.02 186.725 140.386 186.725 142.018C186.725 143.296 186.461 144.399 185.932 145.325C185.403 146.25 184.697 146.956 183.771 147.441C182.889 147.97 181.831 148.235 180.641 148.235Z" fill="#1A141B"/>
<path d="M192.943 147.926V122.177H196.471V147.926H192.943Z" fill="#1A141B"/>
<path d="M210.447 148.235C208.728 148.235 207.317 147.882 206.258 147.221C205.2 146.56 204.495 145.59 204.054 144.311C203.613 143.032 203.393 141.577 203.393 139.858V130.114C203.393 128.438 203.613 126.939 204.098 125.749C204.539 124.514 205.288 123.588 206.303 122.971C207.317 122.31 208.728 122.001 210.447 122.001C212.167 122.001 213.578 122.31 214.592 122.971C215.606 123.632 216.355 124.558 216.796 125.749C217.237 126.939 217.502 128.394 217.502 130.114V139.902C217.502 141.577 217.281 143.032 216.796 144.311C216.355 145.546 215.606 146.516 214.592 147.221C213.578 147.926 212.167 148.235 210.447 148.235ZM210.447 145.413C211.417 145.413 212.123 145.237 212.608 144.84C213.093 144.443 213.445 143.914 213.578 143.165C213.754 142.459 213.842 141.621 213.842 140.651V129.364C213.842 128.394 213.754 127.601 213.578 126.895C213.401 126.19 213.093 125.661 212.608 125.308C212.123 124.955 211.417 124.735 210.447 124.735C209.477 124.735 208.772 124.911 208.287 125.308C207.802 125.661 207.449 126.19 207.273 126.895C207.096 127.601 207.008 128.394 207.008 129.364V140.651C207.008 141.621 207.096 142.459 207.273 143.165C207.449 143.87 207.758 144.443 208.287 144.84C208.728 145.193 209.477 145.413 210.447 145.413Z" fill="#1A141B"/>
<path d="M224.16 147.926V122.177H226.629L233.948 139.284V122.177H236.947V147.926H234.654L227.202 130.334V147.926H224.16Z" fill="#1A141B"/>
<path d="M242.721 147.926L248.188 122.177H251.671L257.183 147.926H253.788L252.597 141.444H247.35L246.116 147.926H242.721ZM247.835 138.887H252.112L249.952 127.291L247.835 138.887Z" fill="#1A141B"/>
<path d="M262.959 147.926V122.177H266.574V145.369H273.144V147.926H262.959Z" fill="#1A141B"/>
<path d="M284.873 148.235C283.374 148.235 282.14 147.926 281.17 147.265C280.2 146.647 279.45 145.765 278.921 144.619C278.392 143.517 278.127 142.194 278.039 140.695L281.214 139.857C281.258 140.783 281.434 141.665 281.654 142.503C281.875 143.34 282.228 144.046 282.757 144.575C283.286 145.104 283.991 145.369 284.873 145.369C285.799 145.369 286.504 145.104 286.989 144.575C287.474 144.046 287.695 143.296 287.695 142.326C287.695 141.18 287.43 140.21 286.901 139.505C286.372 138.799 285.711 138.094 284.917 137.344L280.596 133.508C279.759 132.759 279.141 131.965 278.7 131.083C278.304 130.201 278.083 129.099 278.083 127.82C278.083 125.925 278.612 124.47 279.714 123.411C280.817 122.353 282.272 121.868 284.124 121.868C285.138 121.868 286.019 122 286.813 122.265C287.607 122.53 288.224 122.926 288.753 123.5C289.282 124.073 289.679 124.734 289.988 125.572C290.296 126.41 290.517 127.38 290.605 128.526L287.563 129.364C287.519 128.526 287.386 127.732 287.166 127.027C286.989 126.321 286.637 125.748 286.152 125.307C285.667 124.866 285.005 124.646 284.079 124.646C283.198 124.646 282.492 124.866 282.007 125.351C281.522 125.836 281.258 126.542 281.258 127.468C281.258 128.261 281.39 128.879 281.654 129.408C281.919 129.937 282.36 130.422 282.933 130.951L287.298 134.787C288.268 135.625 289.15 136.639 289.855 137.829C290.605 139.02 290.958 140.386 290.958 142.018C290.958 143.296 290.693 144.399 290.164 145.325C289.635 146.25 288.93 146.956 288.004 147.441C287.122 147.97 286.064 148.235 284.873 148.235Z" fill="#1A141B"/>
</svg>
