<?xml version="1.0" encoding="utf-8"?>
<!-- Generator: Adobe Illustrator 26.4.1, SVG Export Plug-In . SVG Version: 6.00 Build 0)  -->
<svg version="1.1" id="Layer_1" xmlns="http://www.w3.org/2000/svg" xmlns:xlink="http://www.w3.org/1999/xlink" x="0px" y="0px"
	 viewBox="0 0 1790.37 231.85" style="enable-background:new 0 0 1790.37 231.85;" xml:space="preserve">
<style type="text/css">
	.st0{fill:#C47D73;}
</style>
<g>
	<path class="st0" d="M243.14,217.73L333.68,14.6h23.51l90.54,203.13h-28.44l-21.76-49.91H293.34l-21.76,49.91H243.14z
		 M303.21,145.48h84.73l-42.37-97.21L303.21,145.48z"/>
	<path class="st0" d="M552.14,112.69L478.72,14.6h31.34l59.2,80.09l59.2-80.09h31.63l-73.42,98.08l79.22,105.05h-31.63l-65-87.35
		l-65,87.35h-31.63L552.14,112.69z"/>
	<path class="st0" d="M691.32,14.6h31.63l60.94,87.06l61.23-87.06h31.34l-79.51,111.72v91.41h-25.83v-91.12L691.32,14.6z"/>
	<path class="st0" d="M1384.21,14.6h28.44l74,169.47l73.71-169.47h28.44l-90.54,203.13h-23.5L1384.21,14.6z"/>
	<path class="st0" d="M1569.35,217.73l90.54-203.13h23.5l90.54,203.13h-28.44l-21.76-49.91h-104.18l-21.76,49.91H1569.35z
		 M1629.42,145.48h84.73l-42.37-97.21L1629.42,145.48z"/>
	<g>
		<path class="st0" d="M1223.01,115.93c0,19.34,15.73,35.06,35.06,35.07c8.09,0,15.76-2.75,21.98-7.78c0.97-0.78,1.91-1.61,2.8-2.5
			c0.22-0.22,0.41-0.47,0.63-0.7c1.83-1.82,4.96-4.92,8.12-8.05c4.02-3.98,8.06-7.98,9.49-9.41l14.58-14.58
			c0.36,2.62,0.55,5.27,0.55,7.96c0,15.51-6.05,30.11-17.05,41.11c-10.99,11-25.59,17.05-41.11,17.05
			c-16.03,0-30.57-6.52-41.1-17.05c-10.53-10.53-17.05-25.07-17.05-41.1c0-15.51,6.05-30.11,17.05-41.11
			c10.99-10.99,25.59-17.05,41.11-17.05c2.78,0,5.41,0.15,8.12,0.53c-13.43,13.47-32.01,31.96-32.9,32.85
			c-4.34,4.34-7.38,9.63-8.98,15.38C1223.48,109.55,1223.01,112.7,1223.01,115.93z"/>
		<path class="st0" d="M1331.91,41.72c-2.64-2.53-5.6-5.21-8.85-7.59c-0.02,0.02-71.63,71.89-74.34,74.55
			c-4.46,4.38-4.56,11.83-0.21,16.44l0.25,0.26c4.62,4.62,12.07,4.68,16.62,0.12c2.8-2.8,15.88-15.73,18.72-18.56
			c0,0,53.31-53.32,55.87-55.87C1339.96,51.06,1335.91,45.54,1331.91,41.72z"/>
		<path class="st0" d="M1266.2,58.3c-2.71-0.38-5.34-0.53-8.12-0.53c-15.51,0-30.11,6.06-41.11,17.05
			c-10.99,11-17.05,25.59-17.05,41.11c0,16.03,6.52,30.57,17.05,41.1c10.53,10.53,25.07,17.05,41.1,17.05
			c15.51,0,30.11-6.06,41.11-17.05c10.99-10.99,17.05-25.59,17.05-41.11c0-2.69-0.19-5.34-0.55-7.96l-14.58,14.58
			c-1.43,1.43-5.47,5.43-9.49,9.41c-3.16,3.13-6.29,6.23-8.12,8.05c-0.22,0.23-0.41,0.47-0.63,0.7c-0.89,0.89-1.83,1.72-2.8,2.5
			c-13.65,11.39-34.08,10.65-46.95-2.21c-0.25-0.25-0.49-0.5-0.73-0.75c-8.73-9.26-11.37-22.23-8.07-33.72
			c1.6-5.75,4.63-11.03,8.98-15.38C1234.19,90.26,1252.77,71.77,1266.2,58.3z"/>
		<path class="st0" d="M1362.49,115.93c0-15.74-3.46-30.94-10.02-44.75l-17.68,17.68c3.02,8.58,4.6,17.7,4.6,27.07
			c0,44.84-36.48,81.32-81.32,81.32c-21.72,0-42.14-8.46-57.5-23.82c-15.36-15.36-23.82-35.78-23.82-57.5
			c0-44.84,36.48-81.32,81.32-81.32c9.44,0,18.63,1.6,27.27,4.67c6.05-6.06,12.03-12.07,17.62-17.67
			c-13.84-6.6-29.1-10.09-44.89-10.09c-57.57,0-104.41,46.84-104.41,104.41c0,27.89,10.86,54.11,30.58,73.83c0,0,0,0,0,0
			c19.72,19.72,45.94,30.58,73.83,30.58C1315.65,220.34,1362.48,173.5,1362.49,115.93z"/>
		<path class="st0" d="M1232.39,140.25c0.24,0.25,0.48,0.5,0.73,0.75c12.87,12.87,33.3,13.6,46.95,2.21
			c-6.22,5.04-13.89,7.78-21.98,7.78c-19.33,0-35.06-15.73-35.06-35.07c0-3.22,0.46-6.37,1.31-9.4
			C1221.01,118.02,1223.65,130.98,1232.39,140.25z"/>
	</g>
	<polygon class="st0" points="185.5,14.6 113.05,111.68 40.59,14.6 16.43,14.6 16.43,217.73 41.57,217.73 41.57,54.97 
		105.68,139.89 120.71,139.89 184.23,55.01 184.23,217.73 209.37,217.73 209.37,14.6 	"/>
	<polygon class="st0" points="1081.16,14.6 1008.71,111.68 936.25,14.6 912.1,14.6 912.1,217.73 937.23,217.73 937.23,54.97 
		1001.34,139.89 1016.37,139.89 1079.89,55.01 1079.89,217.73 1105.03,217.73 1105.03,14.6 	"/>
</g>
</svg>
